<svg width="48" height="60" viewBox="0 0 48 60" fill="none" xmlns="http://www.w3.org/2000/svg">
<g clip-path="url(#clip0_93_115)">
<path d="M1.90135 0.112503C1.01439 0.168751 0.278159 0.225002 0.266565 0.239063C0.249174 0.253128 0.73613 0.300003 1.34483 0.351566C1.95932 0.398441 2.52743 0.450001 2.61439 0.464066L2.77091 0.492191L2.31874 1.29844C2.06946 1.74375 1.84338 2.15157 1.82599 2.20313C1.797 2.27344 1.9883 2.19375 2.55062 1.89844C2.96801 1.67813 3.32164 1.5 3.33323 1.5C3.34483 1.5 3.2057 1.69688 3.01439 1.93125C2.82309 2.17031 2.68975 2.37188 2.71294 2.38125C2.73613 2.38594 3.08975 2.29688 3.50135 2.17969C4.68975 1.84219 5.78541 1.65469 6.8057 1.62188L7.66946 1.59375L8.94483 2.14219L10.2144 2.69532L11.8666 3.9375C12.7767 4.62188 14.255 5.6625 15.1477 6.25782L16.7709 7.33594L18.1216 10.0547C19.0782 11.9672 19.4782 12.825 19.4782 12.9563C19.4782 13.0922 19.3448 13.3406 18.9216 14.0016C18.3767 14.85 18.3651 14.8641 18.2724 14.7563C18.2202 14.7 18.1854 14.6063 18.1912 14.55C18.2608 14.1375 17.3332 11.25 16.8753 10.4391C16.6144 9.975 15.768 9.17344 15.2579 8.91094C14.6376 8.59219 13.4782 8.46563 12.3709 8.59688C11.2347 8.73281 10.539 8.98125 9.28106 9.71719L8.62019 10.1016L8.3941 10.6172C7.94772 11.6297 7.82598 12.1172 7.76801 13.1016C7.72743 13.7063 7.73323 14.2359 7.77381 14.7422C7.83758 15.5203 7.92454 15.8625 8.13903 16.2094L8.26656 16.4109L8.16222 16.8891C8.02888 17.5078 7.96512 18.45 8.05207 18.6188C8.1912 18.9094 9.03758 19.1859 9.797 19.1906C10.2724 19.1953 10.3071 19.1859 10.8405 18.9703C11.5245 18.6984 12.11 18.5859 12.5042 18.6609C12.655 18.6844 12.91 18.7078 13.0666 18.7125C13.339 18.7125 13.368 18.6984 13.5999 18.4828C13.8376 18.2672 13.855 18.2578 14.1506 18.2578C14.7361 18.2625 14.7361 18.2813 14.168 18.7594C13.8898 18.9984 13.5361 19.3453 13.3912 19.5328C12.9274 20.1047 12.5796 21.1453 12.3129 22.7344C12.1912 23.4891 12.11 23.7984 11.8434 24.5109C11.4144 25.6594 11.1477 26.55 11.0782 27.0422C11.0202 27.4641 11.0724 28.2516 11.2057 28.9453L11.2753 29.3156L12.2318 29.5688C16.11 30.5813 17.4666 30.8156 21.1303 31.1203C22.1448 31.2047 22.1796 31.2047 22.3825 31.1203C22.597 31.0359 22.597 31.0359 22.6318 31.1391C22.7071 31.3688 22.6434 31.5141 22.0579 32.4797C21.5941 33.2391 21.4144 33.5953 21.2984 33.9563C20.3651 36.9563 19.0434 40.5891 18.4521 41.8125C17.9883 42.7688 17.2927 43.9172 16.4869 45.0703C15.7738 46.0922 13.9651 48.9891 12.9506 50.7281C12.597 51.3375 12.539 51.4172 12.4289 51.3938C12.255 51.3563 11.9709 51.5672 11.855 51.8203C11.7622 52.0125 11.7622 52.1531 11.855 52.3828C11.884 52.4578 11.739 52.6172 11.1941 53.1281L10.4984 53.775L10.1564 54.6047C9.84917 55.3453 9.78541 55.4578 9.57091 55.6453C9.25787 55.9078 9.06656 56.2266 9.15932 56.3203C9.1941 56.3578 9.26946 56.3906 9.32743 56.4C9.41439 56.4141 9.32743 56.6203 8.74193 57.8438L8.05787 59.2734L8.1854 59.3531C8.44627 59.5078 9.25207 59.85 9.55352 59.9297C9.92454 60.0281 10.3999 60.0094 11.1303 59.8641C11.9187 59.7047 11.8608 59.7516 11.9013 59.1938C11.9477 58.6406 12.0463 58.2703 12.2666 57.8109C12.3535 57.6375 12.4289 57.4875 12.4347 57.4828C12.4347 57.4781 12.5448 57.5156 12.6724 57.5672C12.9448 57.675 13.0724 57.6516 13.1883 57.4641C13.2869 57.3188 13.3042 56.6906 13.2231 56.3578L13.1767 56.1656L13.5013 56.0672C13.6811 56.0156 13.884 55.9266 13.9535 55.875C14.1158 55.7531 14.1738 55.5047 14.1042 55.2141L14.0463 54.9844L14.3245 54.8156C14.7767 54.5484 15.0955 54.225 15.426 53.6953C15.6811 53.2922 15.739 53.1516 15.7564 52.9078C15.7738 52.6594 15.7622 52.6031 15.6521 52.5094L15.5245 52.4016L15.797 52.0406C15.9419 51.8391 16.597 51.0984 17.2521 50.3906C17.9013 49.6828 18.539 48.9422 18.6608 48.75C18.7825 48.5578 19.0434 48.0234 19.2405 47.5641C19.8492 46.1438 19.9941 45.9375 20.9912 45.1172L21.6753 44.5547L21.9999 43.8984C22.1796 43.5375 22.4811 42.9891 22.6666 42.6797C23.4318 41.4188 25.6173 38.3625 26.7941 36.9C27.5593 35.9531 28.3477 34.8656 28.3477 34.7531C28.3477 34.6875 28.8637 34.0828 29.1709 33.7969C29.6347 33.3609 30.2318 33.2438 30.9912 33.4406L31.4666 33.5625L32.2608 35.1703C33.084 36.825 33.2289 37.0828 34.168 38.5078C35.0028 39.7734 35.2695 40.3828 35.7912 42.1969C35.9999 42.9188 36.0115 42.9469 36.4289 43.4859C37.0898 44.3438 37.368 44.8359 38.0811 46.3781C38.4521 47.1703 39.6579 50.0625 39.7448 50.3578C39.7738 50.4563 39.7506 50.5172 39.6521 50.6016C39.5593 50.6813 39.5361 50.7328 39.5767 50.775C39.6115 50.8078 39.8492 51.0563 40.1158 51.3281C40.6955 51.9188 41.0492 52.3594 41.3216 52.8141C41.5651 53.2313 41.6115 53.6531 41.4955 54.3703L41.4144 54.8625L42.0347 55.5328L42.655 56.2078L42.4869 56.4516C42.2144 56.85 42.284 57.1031 42.7883 57.5391C42.939 57.6703 42.9564 57.7313 43.0434 58.3594C43.0956 58.7344 43.1477 59.0859 43.1651 59.1422C43.1825 59.2313 43.2984 59.2734 43.8434 59.4141C44.197 59.5078 44.7709 59.625 45.1129 59.6813C45.7216 59.7797 45.7506 59.7797 46.3477 59.7C46.8579 59.6344 47.6637 59.4891 47.9245 59.4141C47.9709 59.4 47.826 59.1141 47.5071 58.5703C46.8405 57.4453 46.6782 57.0141 46.4057 55.65C46.1274 54.2672 45.9709 53.9156 45.2463 53.0203C45.0086 52.7297 44.9796 52.6594 44.8115 51.9422L44.6318 51.1688L44.0811 50.2922C43.5709 49.4672 43.5187 49.3547 43.2405 48.5063C42.5448 46.3406 42.3303 45.8484 41.5303 44.5781L41.0434 43.8047L40.6376 42.45C40.3245 41.3953 40.1738 40.7719 39.9709 39.6375C39.3216 36.0797 38.3593 33.2672 36.91 30.6984C36.7419 30.4031 36.7071 30.2766 36.6782 29.9016C36.6318 29.2688 36.2202 28.2891 35.2405 26.4938L34.9274 25.9172L33.7042 24.9609L32.4811 24.0047L32.1738 23.3578C31.6521 22.2609 30.8521 20.7703 30.4695 20.1797C29.9999 19.4625 29.7216 19.0969 28.4695 17.5781C27.339 16.2 27.055 15.9328 25.9999 15.2813C25.2463 14.8172 24.655 14.3484 24.4347 14.0391C24.3419 13.9172 24.1564 13.5938 24.0173 13.3266C23.7274 12.7547 23.5593 12.5203 22.7593 11.5547C22.3187 11.025 22.0984 10.7016 21.8608 10.2422C20.7941 8.17031 19.6405 6.45469 18.8405 5.75156C18.0231 5.02969 16.655 4.29844 12.2028 2.20313L8.78251 0.590626L6.34772 0.295315C5.00859 0.135941 3.82019 0.00468826 3.71004 0.00468826C3.5999 0.00937653 2.78251 0.0562515 1.90135 0.112503ZM15.2289 16.05C15.3738 16.1484 15.5883 16.5234 15.5245 16.5703C15.5129 16.5797 15.3274 16.4063 15.1129 16.1906C14.7825 15.8578 14.7477 15.8016 14.8869 15.8625C14.9796 15.9 15.1361 15.9844 15.2289 16.05ZM17.6579 22.7812C18.4115 23.7 18.9042 24.0375 20.4347 24.6609C20.8811 24.8438 21.3854 25.0781 21.5535 25.1859C21.9419 25.425 22.3303 25.8422 22.6318 26.3438C22.8521 26.7188 22.8695 26.7703 22.8869 27.2203L22.91 27.7031L22.6144 27.9703C22.1332 28.4063 22.0289 28.6219 22.0289 29.1656C22.0289 29.5547 22.0173 29.625 21.9361 29.625C21.6173 29.625 18.5448 29.2359 18.2666 29.1563C18.0811 29.1047 17.5883 28.9359 17.1825 28.7766C16.3303 28.4484 15.6173 28.2422 14.6898 28.0594L14.0463 27.9281L13.9419 27.6844L13.8376 27.4359L14.2608 26.5734C15.0144 25.0406 15.739 23.7984 16.197 23.25C16.5158 22.8609 17.1767 22.2141 17.2173 22.2516C17.2347 22.275 17.4376 22.5094 17.6579 22.7812Z" fill="black"/>
</g>
<defs>
<clipPath id="clip0_93_115">
<rect width="48" height="60" fill="white"/>
</clipPath>
</defs>
</svg>
