<svg width="70" height="50" viewBox="0 0 70 50" fill="none" xmlns="http://www.w3.org/2000/svg">
<g clip-path="url(#clip0_93_101)">
<path d="M28.3718 1.11111C27.289 3.3664 26.3866 6.09789 25.7796 8.98809C25.6483 9.62302 25.5335 10.1521 25.5226 10.1587C25.5116 10.172 25.3093 10.0066 25.0686 9.80159C23.5483 8.45238 21.8312 7.22222 20.1304 6.25661C19.496 5.89286 17.5491 5.01323 17.5054 5.05952C17.4562 5.11905 17.1608 7.19577 17.0843 8.00265C16.9038 9.96032 16.9257 13.2275 17.139 15.3241C17.1718 15.7011 17.1991 16.0053 17.1882 16.0053C17.1827 16.0053 16.9585 15.9325 16.696 15.8333C14.9788 15.2315 13.196 14.8016 11.4733 14.5833C10.5054 14.4643 8.20303 14.4444 8.20303 14.5569C8.20303 14.5966 8.26318 15.0794 8.33975 15.6349C8.68974 18.1415 9.41709 20.8267 10.5054 23.6376C10.746 24.2593 10.9593 24.8016 10.9702 24.8413C10.9921 24.8942 10.8116 24.9339 10.4069 24.9603C8.53662 25.1058 6.40381 25.5357 4.66475 26.1243C3.921 26.3757 2.26396 27.0767 2.171 27.1825C2.14365 27.209 2.32412 27.6587 2.57021 28.1812C3.66396 30.5093 5.02568 32.6124 6.87959 34.8413L7.72178 35.8466L7.43193 35.9921C5.11318 37.1561 2.47178 39.0939 0.699902 40.9325L0.00537109 41.6534L0.716309 42.3942C3.71865 45.5159 8.19756 48.1217 12.4905 49.2394C14.771 49.8347 17.5929 50.1257 19.2499 49.9405C24.6585 49.3386 29.8866 46.7262 34.2069 42.4736C34.4476 42.2355 34.6827 41.9974 34.7265 41.9378C34.8194 41.8254 34.9124 41.7593 33.8679 42.5992C28.5413 46.9246 22.1647 48.8823 16.6413 47.8836C13.4858 47.3148 10.2757 45.8995 7.38271 43.7963C6.52412 43.1746 4.81787 41.7527 4.8124 41.6601C4.8124 41.5939 6.1085 40.4762 6.81943 39.9405C7.60693 39.3386 8.65146 38.6376 9.36787 38.2209L9.84912 37.9431L10.0788 38.1482C10.5382 38.5648 11.8562 39.6032 12.4413 40.0265C15.553 42.2421 18.1069 43.2804 21.7655 43.8228C22.7608 43.9683 25.6429 44.0212 26.7257 43.922C28.503 43.75 30.264 43.3929 31.8827 42.8836C32.6319 42.6455 34.639 41.8651 34.6007 41.8254C34.5897 41.8122 34.2507 41.9048 33.8405 42.0304C31.3796 42.7778 28.9679 43.1019 26.3866 43.0357C22.6733 42.9365 19.5452 42.0635 16.5976 40.3042C15.2905 39.5238 13.7976 38.373 12.6327 37.2553L12.1679 36.8122L12.8241 36.5542C14.1804 36.0185 15.8101 35.582 17.2647 35.3571L17.9319 35.2513L18.4186 35.6746C20.3819 37.3876 22.9085 38.9153 25.4733 39.9405C27.464 40.7407 29.6679 41.2963 31.7733 41.5344C32.6319 41.627 34.8194 41.6865 34.2069 41.5939C33.9663 41.5609 33.3866 41.4749 32.9218 41.3955C29.0335 40.7804 25.0905 39.0675 21.9897 36.6601C21.2515 36.0913 20.278 35.2249 20.3382 35.1984C20.4585 35.1521 22.3343 35.4034 23.253 35.5886C24.2976 35.8003 25.5718 36.164 26.5835 36.5344C27.1468 36.7394 27.2835 36.8254 27.814 37.2751C29.5038 38.7037 31.5983 40.0728 33.4413 40.959C34.1577 41.3029 34.6991 41.541 34.6663 41.5079C34.6499 41.4881 34.1741 41.1905 33.5999 40.8466C33.0312 40.5027 32.271 40.0132 31.9101 39.7487C31.1116 39.1799 29.5804 37.9431 29.6186 37.9034C29.6296 37.8836 30.2147 38.2209 30.9147 38.6442C32.1562 39.3982 33.4741 40.3373 34.3436 41.0847C34.5843 41.2897 34.7811 41.4286 34.7811 41.3955C34.7811 41.3558 34.803 41.3426 34.8304 41.3624C34.8522 41.3823 34.6991 40.9127 34.4804 40.3241C33.8788 38.6905 33.3538 36.9048 32.9819 35.2249C32.9163 34.9405 32.8726 34.6958 32.8835 34.6825C32.9163 34.6429 33.4358 36.0053 33.764 36.9907C34.1194 38.0688 34.3929 39.0212 34.7046 40.3109L34.9452 41.3029L34.9015 40.6085C34.803 38.8889 34.8851 33.7632 35.0054 34.2725C35.153 34.9273 35.2022 38.8889 35.0819 40.8069L35.0546 41.2368L35.2351 40.4762C35.6507 38.7632 36.2304 36.8386 36.7226 35.5489C36.8319 35.2579 36.9632 34.9206 37.0069 34.795C37.1765 34.3254 37.1218 34.6825 36.8647 35.787C36.4546 37.5198 35.9296 39.2527 35.3772 40.668C35.2296 41.045 35.1257 41.3823 35.153 41.4153C35.1749 41.4418 35.3499 41.336 35.5413 41.164C36.6952 40.1455 39.1124 38.4855 40.2226 37.9365L40.4413 37.8307L40.3046 37.963C40.064 38.1944 38.4944 39.4511 37.9804 39.8148C37.7124 40.0132 37.0069 40.463 36.4218 40.8267C35.2515 41.5476 35.2515 41.5675 36.4218 41.0053C38.571 39.9735 40.8077 38.4921 42.5358 36.9511C42.8585 36.6667 43.6351 36.3558 45.0351 35.9458C46.4788 35.5225 48.6171 35.1521 49.3554 35.1984L49.678 35.2183L48.9179 35.8532C45.2866 38.8889 40.8679 40.8929 36.5311 41.4683C36.214 41.5146 35.8202 41.5675 35.6561 41.6005C35.3718 41.6468 35.3772 41.6534 35.8476 41.6601C36.5749 41.6667 38.0788 41.5476 39.0796 41.4021C43.6077 40.7341 48.0046 38.7169 51.5265 35.7077C52.139 35.1786 52.0952 35.1852 53.2218 35.3836C54.5671 35.6151 55.8741 35.9855 57.2577 36.5212L57.8265 36.746L57.4218 37.1362C55.3327 39.1468 52.6366 40.9193 50.4655 41.6997C48.0811 42.5529 46.0796 42.9167 43.4218 42.9696C40.6163 43.0291 38.5819 42.7579 36.0827 41.9974C35.7327 41.8849 35.4265 41.7989 35.3991 41.8056C35.3772 41.8056 35.5905 41.9114 35.8749 42.0304C41.8905 44.6495 49.0655 44.623 54.3976 41.9775C56.1694 41.0979 58.2093 39.7024 59.7569 38.3201C59.9757 38.1217 60.178 37.963 60.2108 37.963C60.3366 37.963 62.0265 39.0542 62.8085 39.6362C63.8749 40.4299 65.2038 41.5807 65.16 41.6733C65.0726 41.8386 63.2351 43.34 62.3983 43.9286C58.6085 46.5807 54.2882 48.0886 50.4765 48.1019C45.7624 48.1151 40.4413 46.0648 36.1319 42.586C35.689 42.2288 35.339 41.9643 35.3554 41.9974C35.3718 42.0304 35.6726 42.3413 36.028 42.6786C40.1296 46.6601 44.9585 49.1005 50.2851 49.881C51.1601 50.0066 53.621 49.9868 54.6601 49.8413C59.0624 49.2262 63.328 47.3479 67.1015 44.3452C68.1077 43.5516 68.4796 43.2077 69.3491 42.3082C69.8522 41.7923 69.9835 41.6204 69.9288 41.5675C69.4257 41.0185 68.6054 40.205 68.1897 39.8347C66.5874 38.3929 64.4601 36.9511 62.4858 35.9524L62.278 35.8466L63.1147 34.8347C64.3671 33.3267 65.4608 31.7659 66.4397 30.0794C66.9483 29.2064 67.8835 27.2421 67.8233 27.1693C67.8015 27.1495 67.4186 26.9577 66.9647 26.7526C64.8921 25.8135 62.2179 25.1653 59.5983 24.9603C59.2702 24.9405 59.0077 24.914 59.0077 24.9008C59.0077 24.8942 59.1718 24.4775 59.3686 23.9683C60.2601 21.7064 61.0257 19.1336 61.4085 17.123C61.5671 16.2897 61.8077 14.537 61.7694 14.4907C61.6929 14.4048 59.2921 14.4643 58.4882 14.5767C56.7874 14.8082 55.1796 15.1852 53.6866 15.7077C53.2163 15.873 52.8226 16.0053 52.8116 16.0053C52.8061 16.0053 52.828 15.6878 52.8663 15.291C53.0686 13.1085 53.0905 10.1323 52.9101 8.11508C52.8444 7.32804 52.5327 5.10582 52.4835 5.05291C52.4561 5.01323 50.6788 5.80027 50.1702 6.07143C48.4858 6.9709 46.4788 8.39947 44.9858 9.74868C44.7179 9.99339 44.4936 10.1786 44.4827 10.1653C44.4718 10.1587 44.3679 9.68916 44.2476 9.12698C43.6077 6.11773 42.6233 3.15476 41.5132 0.912697L41.0647 0L40.3155 0.747353C38.653 2.40079 36.914 4.76191 35.503 7.28836C35.246 7.75794 35.0218 8.13492 34.9999 8.13492C34.978 8.13492 34.7483 7.74471 34.4858 7.27513C33.1733 4.91402 31.3577 2.44709 29.7499 0.833332C29.3452 0.423279 28.9897 0.0727501 28.9569 0.0529099C28.9296 0.0330696 28.6616 0.509258 28.3718 1.11111ZM40.6272 6.62698C41.2671 8.25397 41.721 9.68254 42.1585 11.4352L42.3827 12.3214L41.6827 13.1878C40.753 14.3386 39.8835 15.5556 39.2218 16.6204C38.921 17.0966 38.6421 17.5595 38.6038 17.6389C38.5601 17.7249 38.5108 17.791 38.4944 17.791C38.478 17.791 38.4343 17.619 38.396 17.4074C38.2866 16.7989 37.6085 14.3915 37.2804 13.4524C37.1108 12.9762 36.8374 12.2553 36.6733 11.8386C36.5038 11.4286 36.3671 11.0714 36.3671 11.0384C36.3671 10.9524 37.3022 9.45767 37.8436 8.69048C38.2757 8.0754 40.1788 5.68783 40.239 5.68783C40.2499 5.68783 40.4249 6.11111 40.6272 6.62698ZM30.7069 6.8254C31.6366 7.96296 32.4186 9.06085 33.1843 10.3042L33.6437 11.0516L33.2608 12.0569C32.621 13.7434 32.0796 15.4894 31.6858 17.1561C31.5436 17.7844 31.5327 17.8042 31.4562 17.6653C31.2374 17.2751 30.3679 15.8995 29.9632 15.3108C29.7116 14.9471 29.0772 14.1204 28.5522 13.4788L27.6007 12.3082L27.6991 11.8915C27.8905 11.0582 28.3335 9.49736 28.6343 8.61111C29.028 7.42725 29.6952 5.75397 29.7718 5.75397C29.8046 5.75397 30.2257 6.23677 30.7069 6.8254ZM20.5022 10.3505C21.8147 11.0516 23.0999 11.9048 24.314 12.8638L25.0851 13.4722L25.0413 13.9286C24.8827 15.6349 24.839 18.0357 24.9429 19.6693C24.9702 20.172 24.9866 20.5952 24.9757 20.6151C24.9593 20.6283 24.7186 20.4497 24.4343 20.2183C23.3515 19.3122 21.5194 18.082 20.2015 17.381L19.7585 17.1429L19.7257 16.7923C19.6491 15.9855 19.6218 13.8558 19.6819 12.7646C19.7585 11.2632 19.8624 10.0529 19.9116 10.0529C19.928 10.0529 20.196 10.1852 20.5022 10.3505ZM50.1155 10.1984C50.2577 11.0119 50.3616 15.0926 50.2741 16.4683C50.2358 17.1164 50.2194 17.1627 50.0936 17.2355C50.0171 17.2817 49.4757 17.5992 48.8905 17.9497C47.7147 18.6376 46.6374 19.3849 45.6421 20.1918C45.0897 20.6349 44.9968 20.6944 45.0241 20.5622C45.0405 20.4762 45.0843 19.7619 45.1171 18.9815C45.1718 17.5397 45.128 15.5423 45.0077 14.2857C44.9202 13.3532 44.8819 13.4524 45.5436 12.9299C46.7304 11.9974 48.0046 11.1508 49.1913 10.5026C49.6452 10.2579 50.028 10.0595 50.0499 10.0529C50.0718 10.0529 50.1046 10.119 50.1155 10.1984ZM35.6288 15.1786C36.214 16.6138 36.6296 17.8638 36.996 19.2593L37.2476 20.2249L37.0507 20.6944C36.4218 22.209 35.6397 24.8677 35.2679 26.746C34.9999 28.082 34.989 28.1217 34.9616 27.9431C34.5679 25.6217 33.7804 22.8042 32.971 20.8135C32.703 20.1587 32.703 20.172 33.1186 18.6772C33.5452 17.1164 34.1522 15.4299 34.7702 14.0939C34.9507 13.7037 34.9671 13.6839 35.0382 13.7963C35.0819 13.869 35.3444 14.4841 35.6288 15.1786ZM43.0007 16.1508C43.2085 18.0225 43.2851 19.9868 43.214 21.4418L43.1647 22.414L42.421 23.34C41.2452 24.8148 40.2226 26.3624 39.2655 28.1085C38.8991 28.7765 38.8171 28.8889 38.8444 28.7037C38.8663 28.578 38.921 28.0093 38.9757 27.4471C39.0905 26.1905 39.1124 22.4008 39.003 21.2698L38.9374 20.5556L39.1397 20.2116C39.796 19.1138 40.5069 18.1283 41.5952 16.8122C42.2679 16.0053 42.8421 15.3439 42.864 15.3439C42.8913 15.3439 42.9569 15.7077 43.0007 16.1508ZM27.7155 16.0648C28.8366 17.3214 29.7007 18.4656 30.5538 19.8214L31.0405 20.6019L30.9749 21.4616C30.8327 23.254 30.9038 26.8717 31.1171 28.4656C31.1444 28.6839 31.1608 28.8691 31.1554 28.8823C31.1444 28.8889 30.9421 28.5317 30.7069 28.0886C29.7772 26.3757 28.6507 24.6825 27.4312 23.1812L26.7858 22.3942L26.7421 21.2302C26.7038 20.172 26.7476 18.0688 26.8186 17.381C26.9663 15.9458 27.0374 15.4101 27.0812 15.4101C27.1085 15.4101 27.3929 15.7077 27.7155 16.0648ZM13.453 18.3267C14.5249 18.4524 15.7608 18.7103 16.9694 19.0608C17.5491 19.2262 17.6804 19.2857 17.7187 19.4048C17.746 19.4775 17.8499 19.9471 17.9593 20.4365C18.2874 21.9643 18.7522 23.5648 19.3265 25.1587C19.496 25.6283 19.6272 26.0251 19.6163 26.0384C19.6054 26.0516 19.3647 25.9855 19.0804 25.8929C17.7569 25.463 15.9796 25.1257 14.2022 24.9603L13.721 24.9206L13.5843 24.5437C13.278 23.7302 12.7968 22.209 12.5562 21.3228C12.3101 20.4101 11.8671 18.4392 11.8671 18.2606C11.8671 18.168 12.2007 18.1812 13.453 18.3267ZM58.1327 18.2275C58.1327 18.2474 58.0452 18.6772 57.9413 19.1799C57.5913 20.8532 57.0335 22.7844 56.3499 24.6495C56.2296 24.9669 56.3171 24.9405 55.114 25.0661C53.796 25.205 52.2265 25.5291 50.9577 25.9193C50.6296 26.0251 50.3671 26.0979 50.3671 26.0913C50.3671 26.078 50.4874 25.7407 50.6351 25.3373C51.2366 23.7103 51.8272 21.6534 52.1499 20.0595C52.2319 19.6627 52.3249 19.3122 52.3577 19.2659C52.4179 19.1865 53.8015 18.7963 54.6327 18.6243C55.1632 18.5119 56.7655 18.2672 57.1757 18.2341C57.6843 18.1944 58.1327 18.1878 58.1327 18.2275ZM49.7108 21.1376C49.4101 22.7778 49.071 24.1204 48.5569 25.6746C48.1796 26.832 48.0921 27.0503 47.9991 27.0503C47.8679 27.0503 45.9593 28.2341 45.1991 28.7831C44.2694 29.4577 43.6077 29.9934 42.8421 30.6878C42.5249 30.9788 42.2569 31.2169 42.246 31.2169C42.2351 31.2169 42.4538 30.6415 42.7382 29.9405C43.5038 28.0291 44.078 26.1905 44.4882 24.3188C44.6249 23.6905 44.7069 23.4392 44.7999 23.3466C44.9968 23.1548 46.178 22.2751 46.7851 21.8717C47.6436 21.2963 49.8038 20.1323 49.864 20.205C49.8749 20.2116 49.8038 20.6349 49.7108 21.1376ZM20.9015 20.6085C22.2304 21.2897 23.6304 22.1759 24.8116 23.0952C25.271 23.4524 25.3257 23.5185 25.3749 23.7632C25.8726 26.0979 26.4796 28.0886 27.3327 30.1786C27.5624 30.754 27.7483 31.2169 27.7429 31.2169C27.7319 31.2169 27.4476 30.9656 27.114 30.6614C25.7577 29.4444 24.3741 28.4392 22.7936 27.5132C22.0499 27.0767 21.8202 26.918 21.7765 26.7857C21.7437 26.6931 21.6069 26.2897 21.4647 25.8929C21.1366 24.9471 20.6718 23.2672 20.453 22.2222C20.2124 21.0714 20.0757 20.2381 20.1304 20.2381C20.1522 20.2381 20.4968 20.4034 20.9015 20.6085ZM33.0312 25C33.6491 26.7593 34.103 28.4524 34.453 30.2712C34.6061 31.0913 34.6116 31.1442 34.546 31.746C34.4585 32.6257 34.4585 37.1759 34.5515 38.1283C34.5897 38.5251 34.6335 38.9749 34.6499 39.1204C34.6608 39.2659 34.5897 38.9947 34.4913 38.5251C33.9827 36.1706 33.2663 33.7698 32.539 32.0106C32.3038 31.4484 32.2108 30.7804 32.096 28.8029C32.003 27.2288 32.0851 24.041 32.2436 23.2143C32.271 23.0688 32.3038 23.1151 32.4952 23.578C32.621 23.8691 32.8616 24.5106 33.0312 25ZM37.7561 23.4921C37.964 25.9259 37.9476 28.3267 37.7069 30.7209C37.6304 31.4683 37.603 31.5807 37.2749 32.4471C36.564 34.332 35.9679 36.3426 35.5468 38.3069C35.4265 38.8624 35.339 39.1865 35.3554 39.0212C35.3663 38.8558 35.4101 38.3929 35.4483 37.996C35.5413 36.9974 35.5413 33.1085 35.4483 31.8452L35.3718 30.8532L35.6288 29.6296C35.9296 28.1944 36.3069 26.7857 36.7171 25.5754C37.0835 24.4907 37.6249 23.082 37.6796 23.082C37.7015 23.082 37.7397 23.2672 37.7561 23.4921ZM42.6233 26.1971C42.3718 27.3743 41.8632 29.1865 41.4804 30.291C41.0483 31.541 40.3046 33.3267 40.1897 33.4061C40.0476 33.4921 38.6968 35.2646 38.0733 36.164C37.4335 37.0966 36.8921 37.963 36.3999 38.8558C35.9515 39.6627 35.9296 39.6892 36.1374 39.1865C36.9358 37.2553 37.6413 35 38.1444 32.7844C38.4015 31.6601 38.4233 31.6138 39.2327 30.1918C40.064 28.7368 40.9772 27.414 42.0436 26.1376C42.4483 25.6548 42.7874 25.2646 42.7983 25.2778C42.8093 25.2976 42.7327 25.7077 42.6233 26.1971ZM28.3116 26.6402C29.4218 28.0886 30.2694 29.3783 31.1718 31.0119C31.6147 31.8122 31.6311 31.8585 31.8608 32.8638C32.3476 35.0066 33.0038 37.0966 33.753 38.922C34.0702 39.6892 34.0538 39.6759 33.5507 38.7897C32.6046 37.1098 31.664 35.7275 30.4499 34.2262L29.5913 33.1614L29.0936 31.9444C28.5741 30.6548 28.0874 29.2196 27.7593 28.0026C27.5515 27.2222 27.1796 25.5556 27.1796 25.4101C27.1796 25.2778 27.6936 25.84 28.3116 26.6402ZM16.2694 27.7447C17.1499 27.7976 18.4405 27.996 19.4413 28.2407C20.8522 28.5847 20.7101 28.4987 21.1913 29.332C22.1921 31.0648 23.4663 32.8241 24.8116 34.3452C25.0632 34.623 25.2546 34.8545 25.2382 34.8545C25.2218 34.8545 24.921 34.7487 24.5655 34.6164C22.7444 33.9484 19.9718 33.3333 18.7632 33.3333H18.4897L17.8608 32.4868C17.1061 31.4815 16.5429 30.6349 16.0015 29.6958C15.5804 28.9749 14.9296 27.7513 14.9296 27.6786C14.9296 27.6587 15.0827 27.6587 15.2741 27.672C15.4601 27.6918 15.9085 27.7249 16.2694 27.7447ZM55.0155 27.6918C55.0101 27.791 54.3155 29.0609 53.8069 29.914C53.2819 30.7937 52.4452 32.0238 51.8327 32.8241L51.4882 33.2672L50.6132 33.3664C48.9944 33.5516 47.2335 33.9616 45.6366 34.5238C45.2483 34.6627 44.8819 34.8016 44.8327 34.8214C44.778 34.8479 45.2483 34.246 45.8718 33.4855C47.053 32.0503 47.9554 30.7738 48.7702 29.3651L49.2515 28.5384L49.8749 28.3598C50.7061 28.1151 51.964 27.8638 52.9101 27.7513C53.7522 27.6521 55.0155 27.6191 55.0155 27.6918ZM12.9116 28.6508C13.6062 29.8479 14.5522 31.2566 15.4163 32.3876C15.8101 32.9034 16.1327 33.34 16.1327 33.3532C16.1327 33.3664 15.903 33.3995 15.6296 33.4259C14.4319 33.5317 12.4577 33.9749 11.0304 34.4643L10.2647 34.7288L9.78896 34.1138C8.70615 32.7116 7.771 31.2963 6.95615 29.8148C6.80303 29.537 6.66631 29.2725 6.66084 29.2328C6.63896 29.1402 6.84678 29.0542 8.06631 28.6706C9.31865 28.2804 11.5062 27.8175 12.2608 27.7844C12.3866 27.7778 12.4687 27.8902 12.9116 28.6508ZM59.2265 27.9828C60.2054 28.1614 61.5507 28.5119 62.5132 28.836C62.9397 28.9881 63.3116 29.1204 63.339 29.1402C63.3608 29.1601 63.2077 29.4907 62.989 29.881C62.2179 31.2765 61.2007 32.7976 60.1507 34.1468L59.6913 34.7288L58.9804 34.4907C57.5968 34.0344 55.6772 33.6045 54.239 33.4325C54.0311 33.4061 53.8671 33.3664 53.8671 33.34C53.8671 33.3201 54.0421 33.0886 54.2554 32.8373C55.1577 31.7659 56.5686 29.6759 57.3452 28.2474L57.6132 27.7646L58.0507 27.8042C58.2913 27.8307 58.8218 27.9101 59.2265 27.9828ZM24.1554 30.1323C25.4515 30.8664 27.2069 32.1561 28.4757 33.3069C29.0116 33.7963 29.1319 33.9418 29.4546 34.5106C30.3351 36.0516 31.3796 37.5595 32.6265 39.0741C33.146 39.7024 33.4905 40.1455 33.3976 40.0595C31.9046 38.6839 29.8921 37.2222 28.3226 36.3691L27.546 35.9458L26.6546 34.8942C25.3202 33.3333 24.4288 32.0701 23.5155 30.4431C23.2421 29.9669 23.0233 29.5569 23.0233 29.537C23.0233 29.4974 23.3077 29.6495 24.1554 30.1323ZM46.7522 29.9074C45.8226 31.5741 44.8218 33.0357 43.5038 34.6296L42.4647 35.8929L41.3819 36.5278C40.7804 36.8783 39.9874 37.381 39.6101 37.6389C38.9702 38.082 37.346 39.3651 36.7226 39.9206C36.5421 40.0794 36.6351 39.9537 36.996 39.537C38.1116 38.254 39.5335 36.2302 40.5069 34.5503C40.9335 33.8095 41.0265 33.6905 41.5569 33.2143C42.6944 32.1892 43.4655 31.5939 44.6741 30.787C45.2921 30.377 46.8343 29.4974 46.9382 29.4974C46.9601 29.4974 46.878 29.6825 46.7522 29.9074ZM32.3312 37.5331C33.3483 38.8691 34.8468 41.2103 34.7593 41.3228C34.6882 41.4021 33.2116 39.4643 32.353 38.1614C31.8882 37.4669 31.0897 36.1508 30.9858 35.9127C30.9093 35.7474 31.6913 36.6865 32.3312 37.5331ZM38.6038 36.5873C38.0515 37.5397 37.5429 38.3201 36.8265 39.3188C36.1757 40.2315 35.164 41.4749 35.164 41.3691C35.164 41.2698 36.1429 39.6693 36.7444 38.7831C37.3515 37.8836 38.9374 35.8201 38.9757 35.873C38.9921 35.8862 38.8226 36.2103 38.6038 36.5873Z" fill="black"/>
</g>
<defs>
<clipPath id="clip0_93_101">
<rect width="70" height="50" fill="white"/>
</clipPath>
</defs>
</svg>
