<svg width="80" height="80" viewBox="0 0 80 80" fill="none" xmlns="http://www.w3.org/2000/svg">
<path d="M35.9412 2.17266H21.824V12.3147H35.9412V2.17266Z" fill="#CEE8FA"/>
<path d="M35.9421 14.4873H21.8248C20.6248 14.4873 19.6521 13.5144 19.6521 12.3147V2.17266C19.6521 0.972969 20.6249 0 21.8248 0H35.9421C37.1421 0 38.1148 0.972969 38.1148 2.17266V12.3147C38.1148 13.5144 37.1421 14.4873 35.9421 14.4873ZM23.9974 10.142H33.7694V4.34516H23.9974V10.142Z" fill="#2D527C"/>
<path d="M27.5076 30.8083H15.7481C14.5481 30.8083 13.5754 29.8353 13.5754 28.6356C13.5754 27.4359 14.5481 26.463 15.7481 26.463H27.5075C28.7075 26.463 29.6801 27.4359 29.6801 28.6356C29.6801 29.8355 28.7076 30.8083 27.5076 30.8083Z" fill="#2D527C"/>
<path d="M34.2423 46.8166C34.2423 45.4786 34.2857 44.1436 34.3701 42.8128C33.7284 41.5855 32.9551 40.4175 32.1925 39.392L30.3864 37.1614C29.8828 36.5867 29.4618 36.1427 29.195 35.8683C29.0243 35.6931 28.7435 35.6942 28.574 35.8703C27.2196 37.2786 21.8796 43.14 21.8796 48.0109C21.8796 52.3625 25.0151 55.2953 28.8834 55.2953C31.034 55.2953 32.9574 54.3873 34.2425 52.8342L34.2423 46.8166Z" fill="#CEE8FA"/>
<path d="M28.8834 57.4683C23.6522 57.4683 19.707 53.4027 19.707 48.0113C19.707 42.5467 24.8127 36.6473 27.008 34.3645C27.4969 33.8564 28.1809 33.5652 28.8853 33.5652C29.5836 33.5652 30.2639 33.8522 30.7511 34.3525C31.0342 34.6431 31.4841 35.1177 32.0198 35.7292C32.0386 35.7505 32.0567 35.7722 32.0745 35.7944L33.8806 38.0252C33.8994 38.048 33.9175 38.0717 33.9352 38.0953C34.872 39.3545 35.6659 40.603 36.2948 41.8058C36.4789 42.158 36.563 42.5536 36.538 42.9503C36.4561 44.243 36.4145 45.5441 36.4145 46.8166V52.8344C36.4145 53.3397 36.2381 53.8294 35.9161 54.2191C34.2088 56.2839 31.6453 57.4683 28.8834 57.4683ZM28.8839 38.7586C26.4392 41.6002 24.0523 45.3006 24.0523 48.0113C24.0523 51.0213 26.0391 53.123 28.8834 53.123C30.1108 53.123 31.2186 52.7162 32.0698 51.965V46.8167C32.0698 45.6594 32.1017 44.4808 32.1652 43.3047C31.6955 42.4711 31.1287 41.6055 30.4755 40.7242L28.8839 38.7586Z" fill="#2D527C"/>
<path d="M18.1678 80C16.0106 80 13.9665 79.1577 12.3967 77.6177C10.7698 76.0216 9.83667 73.8063 9.83667 71.5391V46.8166C9.83667 36.2391 12.4395 25.7008 17.364 16.34L20.0135 11.3031C20.3892 10.5889 21.1296 10.1419 21.9364 10.1419H35.831C36.6276 10.1419 37.3601 10.5777 37.7401 11.2775L39.9914 15.422C40.6985 16.7241 41.3779 18.0861 42.0101 19.4697C42.5087 20.5609 42.0281 21.85 40.9368 22.3486C39.8457 22.8472 38.5562 22.3666 38.0579 21.2753C37.4671 19.9823 36.8332 18.7109 36.1734 17.4963L34.5389 14.4872H23.2484L21.2096 18.3627C16.612 27.1023 14.1818 36.9413 14.1818 46.8166V71.5391C14.1818 72.6467 14.6403 73.7317 15.4393 74.5156C16.2082 75.27 17.2082 75.6767 18.2437 75.6539C19.7367 75.6252 21.0757 74.7733 21.7385 73.4311C22.1006 72.6983 22.8429 72.2305 23.6598 72.2205C24.4856 72.2078 25.2306 72.6595 25.6104 73.3833C26.252 74.6058 27.506 75.3652 28.8831 75.3652C30.2603 75.3652 31.5142 74.6058 32.1557 73.3833C32.5356 72.66 33.2918 72.2089 34.1064 72.2205C34.9235 72.2305 35.6659 72.6983 36.0276 73.4308C36.7135 74.8197 38.1554 75.6977 39.7048 75.6531C40.897 75.6234 41.9011 76.5711 41.931 77.7706C41.9612 78.9702 41.0131 79.9669 39.8135 79.9972C37.6512 80.0517 35.5854 79.2542 34.0264 77.8523C32.6079 79.0347 30.8006 79.7102 28.8831 79.7102C26.9684 79.7102 25.1637 79.0366 23.7464 77.858C22.2842 79.1802 20.3751 79.9589 18.3271 79.9984C18.2742 79.9995 18.2207 80 18.1678 80Z" fill="#2D527C"/>
<path d="M54.4255 39.3922C56.2383 41.8294 58.12 45.0681 58.12 48.0111C58.12 52.3627 54.9844 55.2955 51.1163 55.2955C47.2482 55.2955 44.1125 52.3623 44.1125 48.0111C44.1125 43.1403 49.4524 37.2789 50.8069 35.8705C50.9765 35.6942 51.2572 35.6934 51.4279 35.8684C51.6949 36.1427 52.1157 36.5869 52.6193 37.1616L54.4255 39.3922Z" fill="#CEE8FA"/>
<path d="M51.1165 57.4683C45.8853 57.4683 41.9404 53.4027 41.9404 48.0113C41.9404 42.547 47.0461 36.6475 49.2414 34.3645C49.7306 33.8561 50.4146 33.565 51.119 33.565C51.8182 33.565 52.4989 33.8527 52.9862 34.3541C53.2667 34.6417 53.7157 35.1158 54.2537 35.7294C54.2725 35.7506 54.2906 35.7722 54.3084 35.7944L56.1145 38.025C56.1334 38.048 56.1517 38.0717 56.1692 38.0956C58.9059 41.7747 60.2932 45.1108 60.2932 48.0113C60.2931 53.4027 56.3479 57.4683 51.1165 57.4683ZM51.1171 38.7586C48.6728 41.6 46.2856 45.3008 46.2856 48.0113C46.2856 51.0213 48.2723 53.123 51.1164 53.123C53.9611 53.123 55.9475 51.0209 55.9475 48.0113C55.9475 46.1283 54.7973 43.5416 52.7082 40.7241L51.1171 38.7586Z" fill="#2D527C"/>
<path d="M40.401 80C38.2435 80 36.1996 79.1577 34.6296 77.6175C33.0027 76.0217 32.0696 73.8063 32.0696 71.5391V46.8166C32.0696 36.2394 34.6724 25.7008 39.5969 16.34L42.2465 11.3031C42.6221 10.5889 43.3625 10.1419 44.1694 10.1419H58.0638C58.8602 10.1419 59.5927 10.5777 59.9729 11.2775L62.2241 15.422C67.418 24.9833 70.1633 35.7883 70.1633 46.6692V62.3986C70.1633 63.5983 69.1904 64.5713 67.9907 64.5713C66.791 64.5713 65.818 63.5983 65.818 62.3986V46.6692C65.818 36.5105 63.2549 26.4227 58.4058 17.4963L56.7713 14.4872H45.4811L43.4424 18.3627C38.8447 27.1023 36.4146 36.9414 36.4146 46.8166V71.5391C36.4146 72.6467 36.873 73.7314 37.6721 74.5153C38.441 75.2697 39.4407 75.6711 40.4768 75.6537C41.9696 75.625 43.3086 74.7731 43.9715 73.4308C44.3332 72.698 45.0755 72.2302 45.8929 72.2202C45.9018 72.22 45.9107 72.22 45.9197 72.22C46.7265 72.22 47.4677 72.6675 47.8433 73.3833C48.4849 74.6058 49.739 75.3652 51.116 75.3652C52.493 75.3652 53.7471 74.6058 54.3886 73.3833C54.7685 72.6595 55.5305 72.2058 56.3393 72.2203C57.1565 72.2303 57.8988 72.6978 58.2605 73.4306C58.9465 74.8198 60.3969 75.69 61.9377 75.6533C64.0772 75.5998 65.8179 73.7583 65.8179 71.5486V70.5125C65.8179 69.3128 66.7908 68.3398 67.9905 68.3398C69.1902 68.3398 70.1632 69.3128 70.1632 70.5125V71.5486C70.1632 76.0953 66.5221 79.8852 62.0466 79.9973C59.8833 80.0481 57.8186 79.2541 56.2594 77.8525C54.8411 79.0349 53.0336 79.7103 51.1161 79.7103C49.2016 79.7103 47.3968 79.0367 45.9794 77.858C44.5174 79.1805 42.6082 79.9591 40.5605 79.9986C40.5074 79.9995 40.4543 80 40.401 80Z" fill="#2D527C"/>
<path d="M58.176 2.17266H44.0588V12.3147H58.176V2.17266Z" fill="#CEE8FA"/>
<path d="M58.1753 14.4873H44.0579C42.8582 14.4873 41.8853 13.5144 41.8853 12.3147V2.17266C41.8853 0.972969 42.8582 0 44.0579 0H58.1753C59.3749 0 60.3479 0.972969 60.3479 2.17266V12.3147C60.3479 13.5144 59.3749 14.4873 58.1753 14.4873ZM46.2306 10.142H56.0026V4.34516H46.2306V10.142Z" fill="#2D527C"/>
<path d="M49.7406 30.8083H37.9812C36.7812 30.8083 35.8086 29.8353 35.8086 28.6356C35.8086 27.4359 36.7812 26.463 37.9812 26.463H49.7406C50.9403 26.463 51.9133 27.4359 51.9133 28.6356C51.9133 29.8355 50.9406 30.8083 49.7406 30.8083Z" fill="#2D527C"/>
<path d="M67.2213 64.5705H55.4617C54.262 64.5705 53.2891 63.5975 53.2891 62.3978C53.2891 61.1981 54.262 60.2252 55.4617 60.2252H67.2213C68.4209 60.2252 69.3939 61.1981 69.3939 62.3978C69.3939 63.5975 68.4213 64.5705 67.2213 64.5705Z" fill="#2D527C"/>
</svg>
