<svg width="20" height="20" viewBox="0 0 20 20" fill="none" xmlns="http://www.w3.org/2000/svg">
<path d="M5.8125 18.3333C5.38194 18.3333 5.01042 18.191 4.69792 17.9062C4.38542 17.6215 4.20833 17.2708 4.16667 16.8542L2.5 1.66666H17.5L15.8333 16.8542C15.7917 17.2708 15.6146 17.6215 15.3021 17.9062C14.9896 18.191 14.6181 18.3333 14.1875 18.3333H5.8125ZM4.91667 8.33332L5.83333 16.6667H14.1667L15.0833 8.33332H4.91667ZM4.70833 6.66666H15.2917L15.625 3.33332H4.375L4.70833 6.66666ZM10 14.1667C9.80556 14.1667 9.63889 14.0972 9.5 13.9583C9.36111 13.8194 9.29167 13.6528 9.29167 13.4583C9.29167 13.25 9.35069 13.0104 9.46875 12.7396C9.58681 12.4687 9.76389 12.1597 10 11.8125C10.2361 12.1597 10.4132 12.4687 10.5312 12.7396C10.6493 13.0104 10.7083 13.25 10.7083 13.4583C10.7083 13.6528 10.6389 13.8194 10.5 13.9583C10.3611 14.0972 10.1944 14.1667 10 14.1667ZM10 15.8333C10.6667 15.8333 11.2292 15.6042 11.6875 15.1458C12.1458 14.6875 12.375 14.125 12.375 13.4583C12.375 12.8889 12.191 12.2708 11.8229 11.6042C11.4549 10.9375 10.8472 10.125 10 9.16666C9.15278 10.125 8.54514 10.9375 8.17708 11.6042C7.80903 12.2708 7.625 12.8889 7.625 13.4583C7.625 14.125 7.85417 14.6875 8.3125 15.1458C8.77083 15.6042 9.33333 15.8333 10 15.8333Z" fill="#E8EAED"/>
</svg>
