<svg width="41" height="41" viewBox="0 0 41 41" fill="none" xmlns="http://www.w3.org/2000/svg">
<path d="M8.28 7.96H10.08L12.672 23.056L17.352 15.352L16.08 8.08H17.664L18.624 14.128L22.2 8.08H23.784L19.416 15.352L20.832 23.056L29.808 7.96H31.656L21.168 25H19.728L18.144 16.576L12.96 25H11.496L8.28 7.96Z" fill="url(#paint0_linear_41_12)"/>
<path d="M25.8175 30.1854C25.8253 30.2245 25.8332 30.2792 25.841 30.3495C25.8566 30.4198 25.8644 30.4784 25.8644 30.5253C25.8644 30.7597 25.8097 30.9354 25.7003 31.0526H19.5128L19.4191 30.83C19.4191 30.7128 19.4425 30.5995 19.4894 30.4901C19.5363 30.3729 19.5988 30.2675 19.6769 30.1737C20.341 30.1737 20.8566 30.0526 21.2238 29.8104C21.591 29.5683 21.8488 29.1386 21.9972 28.5214C22.13 27.9745 22.341 27.1698 22.63 26.1073C23.1378 24.2714 23.5363 22.705 23.8253 21.4081C24.1222 20.1034 24.2707 19.0409 24.2707 18.2206C24.2707 17.9081 24.1925 17.6737 24.0363 17.5175C23.88 17.3534 23.6925 17.2519 23.4738 17.2128C23.2628 17.1659 22.9777 17.1308 22.6183 17.1073C22.5793 16.9276 22.5597 16.8144 22.5597 16.7675C22.5597 16.5331 22.6183 16.3573 22.7355 16.2401H33.7043V19.744C33.4699 19.9472 33.2394 20.0487 33.0128 20.0487C32.841 20.0487 32.6769 19.9784 32.5207 19.8378C32.5128 19.7987 32.5011 19.7519 32.4855 19.6972C32.4699 19.6347 32.4543 19.5644 32.4386 19.4862C32.3214 18.994 32.2043 18.5917 32.0871 18.2792C31.9699 17.9589 31.7902 17.6854 31.548 17.4589C31.3058 17.2245 30.9816 17.1073 30.5753 17.1073H27.2121C26.7668 17.1073 26.4738 17.4198 26.3332 18.0448L25.1027 23.4823H29.0753C29.4269 23.4823 29.7238 23.3886 29.966 23.2011C30.2082 23.0058 30.4503 22.7558 30.6925 22.4511C30.8175 22.3026 30.9074 22.2011 30.9621 22.1464C31.0246 22.0839 31.0832 22.0526 31.1378 22.0526H31.923L30.8332 26.1425H30.1769C30.1222 25.6425 30.0089 25.2011 29.8371 24.8183C29.6652 24.4354 29.3839 24.244 28.9933 24.244H24.9152C24.8605 24.5019 24.7277 25.0097 24.5168 25.7675C24.3058 26.5097 24.1457 27.1308 24.0363 27.6308C23.9347 28.1229 23.8839 28.619 23.8839 29.119C23.8839 29.5097 24.0832 29.7831 24.4816 29.9394C24.88 30.0878 25.3253 30.1698 25.8175 30.1854Z" fill="url(#paint1_linear_41_12)"/>
<path d="M40.5 19.3684C40.5 29.7628 31.5728 38.2368 20.5 38.2368C9.42718 38.2368 0.5 29.7628 0.5 19.3684C0.5 8.97405 9.42718 0.5 20.5 0.5C31.5728 0.5 40.5 8.97405 40.5 19.3684Z" stroke="url(#paint2_linear_41_12)"/>
<defs>
<linearGradient id="paint0_linear_41_12" x1="19.5" y1="3" x2="19.5" y2="31" gradientUnits="userSpaceOnUse">
<stop stop-color="white"/>
<stop offset="1" stop-color="#DEDEDE"/>
</linearGradient>
<linearGradient id="paint1_linear_41_12" x1="27.4111" y1="8.05264" x2="27.4111" y2="40.0526" gradientUnits="userSpaceOnUse">
<stop stop-color="white"/>
<stop offset="1" stop-color="#DEDEDE"/>
</linearGradient>
<linearGradient id="paint2_linear_41_12" x1="20.5" y1="0" x2="20.5" y2="38.7368" gradientUnits="userSpaceOnUse">
<stop stop-color="white"/>
<stop offset="1" stop-color="#DEDEDE"/>
</linearGradient>
</defs>
</svg>
