<svg width="90" height="95" viewBox="0 0 90 95" fill="none" xmlns="http://www.w3.org/2000/svg">
<path d="M13.7 20.4H18.2L24.68 58.14L36.38 38.88L33.2 20.7H37.16L39.56 35.82L48.5 20.7H52.46L41.54 38.88L45.08 58.14L67.52 20.4H72.14L45.92 63H42.32L38.36 41.94L25.4 63H21.74L13.7 20.4Z" fill="url(#paint0_linear_40_2)"/>
<path d="M53.2383 74.832C53.2578 74.9297 53.2773 75.0664 53.2969 75.2422C53.3359 75.418 53.3555 75.5645 53.3555 75.6816C53.3555 76.2676 53.2188 76.707 52.9453 77H37.4766L37.2422 76.4434C37.2422 76.1504 37.3008 75.8672 37.418 75.5938C37.5352 75.3008 37.6914 75.0371 37.8867 74.8027C39.5469 74.8027 40.8359 74.5 41.7539 73.8945C42.6719 73.2891 43.3164 72.2148 43.6875 70.6719C44.0195 69.3047 44.5469 67.293 45.2695 64.6367C46.5391 60.0469 47.5352 56.1309 48.2578 52.8887C49 49.627 49.3711 46.9707 49.3711 44.9199C49.3711 44.1387 49.1758 43.5527 48.7852 43.1621C48.3945 42.752 47.9258 42.498 47.3789 42.4004C46.8516 42.2832 46.1387 42.1953 45.2402 42.1367C45.1426 41.6875 45.0938 41.4043 45.0938 41.2871C45.0938 40.7012 45.2402 40.2617 45.5332 39.9688H72.9551V48.7285C72.3691 49.2363 71.793 49.4902 71.2266 49.4902C70.7969 49.4902 70.3867 49.3145 69.9961 48.9629C69.9766 48.8652 69.9473 48.748 69.9082 48.6113C69.8691 48.4551 69.8301 48.2793 69.791 48.084C69.498 46.8535 69.2051 45.8477 68.9121 45.0664C68.6191 44.2656 68.1699 43.582 67.5645 43.0156C66.959 42.4297 66.1484 42.1367 65.1328 42.1367H56.7246C55.6113 42.1367 54.8789 42.918 54.5273 44.4805L51.4512 58.0742H61.3828C62.2617 58.0742 63.0039 57.8398 63.6094 57.3711C64.2148 56.8828 64.8203 56.2578 65.4258 55.4961C65.7383 55.125 65.9629 54.8711 66.0996 54.7344C66.2559 54.5781 66.4023 54.5 66.5391 54.5H68.502L65.7773 64.7246H64.1367C64 63.4746 63.7168 62.3711 63.2871 61.4141C62.8574 60.457 62.1543 59.9785 61.1777 59.9785H50.9824C50.8457 60.623 50.5137 61.8926 49.9863 63.7871C49.459 65.6426 49.0586 67.1953 48.7852 68.4453C48.5312 69.6758 48.4043 70.916 48.4043 72.166C48.4043 73.1426 48.9023 73.8262 49.8984 74.2168C50.8945 74.5879 52.0078 74.793 53.2383 74.832Z" fill="url(#paint1_linear_40_2)"/>
<path d="M89.5 46C89.5 71.1394 69.5664 91.5 45 91.5C20.4336 91.5 0.5 71.1394 0.5 46C0.5 20.8606 20.4336 0.5 45 0.5C69.5664 0.5 89.5 20.8606 89.5 46Z" stroke="url(#paint2_linear_40_2)"/>
<defs>
<linearGradient id="paint0_linear_40_2" x1="38" y1="7" x2="38" y2="77" gradientUnits="userSpaceOnUse">
<stop stop-color="white"/>
<stop offset="1" stop-color="#DEDEDE"/>
</linearGradient>
<linearGradient id="paint1_linear_40_2" x1="55" y1="19" x2="55" y2="95" gradientUnits="userSpaceOnUse">
<stop stop-color="white"/>
<stop offset="1" stop-color="#DEDEDE"/>
</linearGradient>
<linearGradient id="paint2_linear_40_2" x1="45" y1="0" x2="45" y2="92" gradientUnits="userSpaceOnUse">
<stop stop-color="white"/>
<stop offset="1" stop-color="#DEDEDE"/>
</linearGradient>
</defs>
</svg>
